<?xml version="1.0" standalone="no"?>
<!DOCTYPE svg PUBLIC "-//W3C//DTD SVG 20010904//EN"
 "http://www.w3.org/TR/2001/REC-SVG-20010904/DTD/svg10.dtd">
<svg version="1.0" xmlns="http://www.w3.org/2000/svg"
 width="225.000000pt" height="225.000000pt" viewBox="0 0 225.000000 225.000000"
 preserveAspectRatio="xMidYMid meet">
<metadata>
Created by potrace 1.14, written by Peter Selinger 2001-2017
</metadata>
<g transform="translate(0.000000,225.000000) scale(0.100000,-0.100000)"
fill="#000000" stroke="none">
<path d="M0 1890 l0 -360 40 0 c36 0 40 -2 40 -25 0 -25 0 -25 35 -11 20 9 42
13 49 10 18 -7 57 13 53 28 -1 6 4 13 11 15 7 3 12 -4 12 -15 0 -15 12 -25 45
-37 l44 -17 35 28 c33 28 42 56 38 124 -1 17 38 73 46 66 3 -4 -5 -17 -18 -31
-29 -31 -21 -42 11 -16 24 19 25 19 26 1 1 -13 -3 -17 -14 -13 -10 4 -14 2
-10 -4 4 -6 -2 -13 -13 -16 -16 -4 -20 -13 -19 -44 0 -21 4 -47 9 -58 5 -12 6
3 3 38 -4 37 -2 57 5 57 6 0 16 2 24 5 10 4 12 -7 10 -51 -3 -36 2 -72 13
-100 20 -53 33 -57 27 -9 -4 35 2 42 26 26 8 -5 11 -18 7 -37 -3 -19 -3 -23 3
-11 7 17 9 16 21 -7 19 -35 43 -43 31 -10 -13 34 -13 39 5 24 8 -7 15 -22 15
-34 0 -24 13 -48 54 -106 24 -33 26 -42 16 -55 -11 -13 -10 -14 5 -8 15 5 17
3 12 -11 -4 -10 -3 -15 3 -11 6 3 10 0 10 -7 0 -61 24 -262 41 -341 12 -54 19
-109 16 -122 -2 -14 1 -26 7 -28 13 -4 -16 -51 -53 -83 -33 -29 -202 -138
-286 -184 -85 -46 -140 -89 -160 -123 -13 -22 -7 -19 28 15 24 24 72 59 106
78 34 19 106 63 158 98 53 34 100 62 103 62 4 0 29 20 56 45 27 24 52 41 55
37 4 -4 11 -50 17 -103 13 -119 55 -246 118 -359 39 -70 47 -94 48 -139 1 -69
21 -79 31 -16 3 26 13 65 21 87 17 49 12 62 -7 19 -8 -17 -18 -30 -23 -28 -4
1 -20 25 -35 52 -14 28 -36 64 -48 81 -37 52 -61 127 -82 256 -27 167 -28 193
-14 193 7 0 18 7 25 15 11 12 11 12 -4 1 -16 -12 -18 -11 -18 11 0 32 42 114
57 111 14 -3 68 16 62 21 -2 3 -23 1 -46 -4 -44 -8 -56 1 -25 19 9 6 12 11 6
11 -19 0 -30 -21 -49 -95 l-19 -70 -8 55 c-4 30 -15 93 -23 140 -23 128 -35
303 -21 312 18 12 24 9 32 -14 10 -32 37 -67 51 -68 20 0 34 -38 31 -78 -2
-20 1 -38 7 -39 5 -1 13 -10 17 -20 6 -12 7 -9 3 10 -3 15 -1 27 5 27 5 0 10
-14 10 -31 0 -17 4 -28 10 -24 5 3 10 4 10 1 0 -2 7 -40 15 -83 17 -91 18 -93
6 -112 -8 -12 -15 -10 -46 8 -35 21 -66 21 -35 0 45 -29 188 -51 245 -38 l30
7 -27 1 c-21 1 -33 10 -48 38 -12 21 -19 30 -16 20 20 -64 21 -62 -34 -59
l-50 4 0 41 c0 38 -11 109 -30 200 -7 32 -6 37 8 33 10 -2 32 -8 51 -11 19 -4
54 -18 77 -30 24 -13 53 -21 64 -18 11 3 48 31 82 62 116 103 103 108 103 -34
0 -115 2 -125 23 -148 l23 -24 -63 -26 c-35 -14 -55 -26 -46 -27 9 0 37 9 62
20 25 10 46 17 46 15 0 -13 -65 -166 -100 -235 -22 -44 -49 -104 -60 -133 -11
-28 -41 -79 -68 -112 -47 -59 -102 -146 -102 -162 0 -4 19 20 43 54 23 34 59
81 80 106 21 25 47 71 58 104 12 32 29 72 39 88 23 38 107 233 116 271 4 16
22 44 40 62 19 18 34 38 34 45 0 7 -11 -1 -25 -18 -27 -33 -34 -23 -9 13 27
38 50 24 91 -58 31 -60 43 -76 63 -78 15 -2 48 -25 79 -57 69 -70 161 -131
295 -196 63 -31 115 -63 125 -78 23 -33 64 -183 92 -334 21 -110 23 -117 45
-117 l24 0 0 1125 0 1125 -1110 0 -1110 0 0 -360z m1910 343 c0 -17 -19 -37
-27 -29 -4 5 -2 11 5 13 6 3 10 9 6 14 -3 5 0 9 5 9 6 0 11 -3 11 -7z m40 -74
c0 -5 -4 -9 -10 -9 -5 0 -10 7 -10 16 0 8 5 12 10 9 6 -3 10 -10 10 -16z
m-1346 -95 c3 -8 2 -12 -4 -9 -6 3 -10 10 -10 16 0 14 7 11 14 -7z m-84 -64
c0 -5 -9 -14 -20 -20 -22 -12 -27 -1 -8 18 14 14 28 16 28 2z m1100 0 c0 -5
-2 -10 -4 -10 -3 0 -8 5 -11 10 -3 6 -1 10 4 10 6 0 11 -4 11 -10z m-1058 -22
c-7 -7 -12 -8 -12 -2 0 14 12 26 19 19 2 -3 -1 -11 -7 -17z m-31 -55 c-10 -17
-10 -16 -11 3 0 23 13 41 18 25 2 -6 -1 -18 -7 -28z m608 -63 c39 -46 71 -87
71 -90 0 -3 -16 -10 -35 -16 -25 -8 -37 -8 -44 0 -7 9 -55 128 -79 196 -7 21
3 10 87 -90z m501 90 c0 -5 -2 -10 -4 -10 -3 0 -8 5 -11 10 -3 6 -1 10 4 10 6
0 11 -4 11 -10z m-1138 -18 c-7 -2 -9 -9 -6 -14 4 -7 2 -8 -4 -4 -6 4 -9 13
-6 21 4 8 11 12 17 8 8 -5 7 -8 -1 -11z m468 -89 c0 -2 20 -29 45 -60 48 -59
55 -61 29 -10 l-16 32 28 -26 c49 -45 68 -51 118 -37 42 11 47 10 61 -7 13
-17 13 -13 -1 30 -8 28 -22 63 -31 79 -9 16 -11 27 -5 25 13 -5 112 -98 112
-106 0 -3 -15 -3 -32 1 -24 4 -29 3 -18 -4 8 -5 25 -10 37 -10 12 0 26 -6 30
-14 7 -12 10 -12 21 0 7 8 8 14 2 14 -5 0 -10 17 -9 38 l0 37 19 -46 c18 -46
26 -79 37 -156 7 -50 16 -54 37 -15 12 21 15 23 14 7 -2 -39 5 -130 9 -109 2
12 17 34 34 50 28 27 29 27 44 8 18 -24 19 -40 1 -25 -31 26 -67 -20 -46 -59
9 -17 8 -25 -4 -39 -9 -10 -14 -25 -10 -35 4 -11 1 -16 -12 -16 -15 0 -16 -2
-5 -9 18 -11 6 -61 -14 -61 -18 0 -18 5 -5 31 6 10 9 19 6 19 -3 0 -21 -33
-40 -74 -29 -60 -53 -90 -125 -158 -49 -47 -109 -95 -134 -108 l-43 -23 -98
49 c-133 67 -183 107 -220 176 -17 32 -35 57 -41 57 -24 -3 -33 2 -38 21 -3
13 0 20 9 20 17 0 17 -3 -1 67 -8 31 -15 96 -14 143 l0 85 17 -44 c18 -47 71
-96 58 -54 -8 25 23 63 52 63 16 -1 16 -2 0 -13 -15 -12 -15 -16 -1 -45 9 -18
21 -32 27 -32 19 0 39 17 32 28 -3 6 -2 13 4 17 6 4 7 11 4 17 -4 6 0 14 7 19
11 7 10 11 -6 23 -11 9 -29 15 -40 16 -21 0 -85 -35 -97 -54 -10 -14 -9 84 1
144 l7 45 12 -50 c7 -28 18 -57 23 -65 9 -13 10 -13 6 2 -5 13 5 19 44 28 45
11 52 10 71 -6 21 -19 21 -19 10 2 -15 29 -26 163 -17 220 l7 47 24 -43 c13
-23 24 -44 24 -47z m-123 -60 c20 -43 38 -81 40 -84 2 -3 -17 -10 -42 -16
l-45 -10 0 93 c0 52 2 94 5 94 2 0 21 -35 42 -77z m903 18 c-1 -13 -3 -13 -15
3 -19 26 -19 42 0 26 8 -7 15 -20 15 -29z m-1289 -12 c-9 -22 -10 -22 -10 -3
-1 11 2 24 6 27 12 12 14 0 4 -24z m1263 -5 c3 -8 2 -12 -4 -9 -6 3 -10 10
-10 16 0 14 7 11 14 -7z m-1306 -49 c-3 -3 -9 2 -12 12 -6 14 -5 15 5 6 7 -7
10 -15 7 -18z m1300 -53 c-3 -12 -9 -6 -21 22 -22 50 -21 54 4 22 11 -14 19
-34 17 -44z m-28 -17 c0 -5 -5 -3 -10 5 -5 8 -10 20 -10 25 0 6 5 3 10 -5 5
-8 10 -19 10 -25z m-8 -55 c5 -34 -7 -41 -17 -10 -5 17 0 40 9 40 2 0 6 -13 8
-30z m-39 -70 c3 -11 1 -23 -4 -26 -5 -3 -9 6 -9 20 0 31 6 34 13 6z m-1121
-15 c3 -13 1 -22 -3 -19 -9 5 -13 44 -5 44 2 0 6 -11 8 -25z m1038 -31 c12
-22 12 -29 -4 -59 -11 -19 -28 -42 -39 -52 -19 -17 -19 -15 2 20 18 29 22 48
18 78 -6 45 4 50 23 13z m70 -58 c0 -6 -7 -1 -15 10 -8 10 -15 23 -15 28 0 6
7 1 15 -10 8 -10 15 -23 15 -28z m-970 24 c0 -5 -4 -10 -10 -10 -5 0 -10 5
-10 10 0 6 5 10 10 10 6 0 10 -4 10 -10z m0 -29 c0 -6 -4 -13 -10 -16 -5 -3
-10 -18 -11 -33 l-1 -27 -10 27 c-7 20 -6 31 4 42 15 17 28 20 28 7z m50 -54
c0 -5 -7 -4 -15 3 -8 7 -15 20 -15 29 1 13 3 13 15 -3 8 -11 15 -24 15 -29z
m877 21 c-3 -8 -6 -5 -6 6 -1 11 2 17 5 13 3 -3 4 -12 1 -19z m-59 -99 c-1
-20 -4 -26 -9 -17 -12 18 -11 48 0 48 5 0 9 -14 9 -31z m59 -19 c1 -16 -1 -30
-5 -30 -11 0 -33 61 -26 72 10 16 27 -8 31 -42z m-76 -22 c5 -10 9 -28 9 -40
0 -21 -2 -20 -16 7 -23 44 -25 43 -20 -9 2 -27 10 -53 18 -57 10 -7 9 -9 -4
-9 -9 0 -20 -5 -23 -10 -4 -7 2 -9 17 -5 19 5 25 1 35 -24 17 -46 -2 -48 -45
-5 -30 31 -34 39 -19 42 19 4 24 38 5 44 -7 3 -8 9 -3 18 5 8 10 33 11 55 2
58 4 63 16 35 5 -14 14 -33 19 -42z m-74 10 c-3 -7 -5 -2 -5 12 0 14 2 19 5
13 2 -7 2 -19 0 -25z m143 -84 c0 -7 -6 -16 -12 -20 -7 -4 -10 -4 -6 1 4 4 3
14 -3 21 -6 8 -9 20 -6 29 4 8 2 17 -3 20 -6 4 -10 16 -10 28 0 16 6 9 20 -22
11 -24 20 -49 20 -57z m-840 71 c10 -12 10 -15 -4 -15 -9 0 -16 7 -16 15 0 8
2 15 4 15 2 0 9 -7 16 -15z m697 -30 c0 -8 -4 -12 -9 -9 -4 3 -8 9 -8 15 0 5
4 9 8 9 5 0 9 -7 9 -15z m283 -13 c0 -15 -2 -15 -10 -2 -13 20 -13 33 0 25 6
-3 10 -14 10 -23z m-87 -22 c3 -11 0 -20 -5 -20 -6 0 -5 -6 2 -15 9 -10 9 -15
1 -15 -12 0 -13 4 -15 49 -1 32 9 33 17 1z m-82 -55 c5 4 10 3 11 -2 3 -19 5
-63 2 -63 -9 0 -34 76 -32 99 1 21 2 20 5 -7 2 -18 9 -30 14 -27z m159 -7 c0
-5 -5 -6 -10 -3 -7 4 -9 -3 -5 -22 l6 -28 -16 28 c-9 15 -13 32 -10 37 7 11
35 2 35 -12z m-83 -95 c-6 -9 -6 -13 2 -13 7 0 9 -5 6 -11 -9 -13 -18 -4 -20
19 -1 9 -6 26 -13 38 -6 11 -8 31 -5 44 5 20 8 18 23 -21 11 -29 13 -48 7 -56z
m21 70 c0 -27 -1 -26 -16 3 -8 16 -8 21 2 21 8 0 14 -11 14 -24z m-241 -15
c-3 -8 -6 -5 -6 6 -1 11 2 17 5 13 3 -3 4 -12 1 -19z m275 -52 c-7 -13 -22 16
-21 44 0 24 0 24 13 -5 7 -16 11 -34 8 -39z m-345 22 c-3 -8 -6 -5 -6 6 -1 11
2 17 5 13 3 -3 4 -12 1 -19z m43 10 c0 -4 -7 -8 -15 -8 -8 0 -15 4 -15 8 0 5
7 9 15 9 8 0 15 -4 15 -9z m347 -10 c-3 -8 -6 -5 -6 6 -1 11 2 17 5 13 3 -3 4
-12 1 -19z m87 -23 l17 -30 -20 24 c-12 13 -21 28 -21 34 0 12 0 11 24 -28z
m-214 -8 c0 -7 6 -23 13 -37 8 -15 10 -35 6 -50 -6 -21 -7 -22 -8 -4 -1 11 -5
24 -10 30 -15 15 -26 88 -12 80 6 -4 11 -13 11 -19z m-240 -2 c0 -2 -7 -5 -15
-9 -9 -3 -15 0 -15 9 0 9 6 12 15 9 8 -4 15 -7 15 -9z m195 -27 c-4 -22 -3
-27 3 -15 9 21 10 20 56 -93 23 -57 25 -66 11 -76 -8 -6 -12 -14 -8 -17 3 -4
12 -2 20 4 9 9 13 8 13 0 0 -6 4 -11 10 -11 5 0 0 21 -11 47 -11 26 -19 58
-17 72 2 17 18 -14 51 -99 51 -131 60 -200 12 -92 -30 65 -46 81 -20 19 8 -21
12 -37 7 -37 -4 0 -29 23 -56 51 -26 28 -54 48 -61 45 -24 -9 -80 93 -70 126
4 10 2 18 -4 18 -6 0 -11 4 -11 10 0 17 43 4 51 -16 5 -12 7 -3 7 27 0 43 6
69 17 69 3 0 2 -15 0 -32z m228 -88 l-6 -32 -13 23 c-15 28 -19 51 -4 29 7
-11 10 -6 10 19 0 33 -1 34 -16 15 -15 -18 -15 -18 -5 3 6 12 9 30 6 40 -3 10
4 -1 15 -24 14 -28 18 -51 13 -73z m-399 50 c-1 -8 -3 -18 -3 -22 -1 -12 -31
-9 -31 3 0 5 4 8 9 4 5 -3 13 0 17 6 5 8 3 9 -6 4 -10 -6 -11 -4 -4 6 5 8 8
23 6 34 l-2 20 9 -20 c4 -11 7 -27 5 -35z m-24 18 c0 -5 -6 -15 -13 -23 -11
-11 -14 -8 -14 15 0 19 5 26 14 23 7 -3 13 -9 13 -15z m159 -4 c-6 -7 -15 -11
-21 -8 -5 3 -4 12 3 20 6 7 15 11 21 8 5 -3 4 -12 -3 -20z m157 -31 c10 -32
17 -64 15 -72 -1 -7 2 -10 7 -7 13 8 42 -77 42 -118 l-1 -31 -15 35 c-8 19
-13 43 -10 53 2 10 -3 26 -12 36 -25 24 -45 67 -40 82 3 8 -1 20 -9 27 -7 7
-13 22 -13 33 0 37 17 18 36 -38z m32 20 c-6 -8 -8 -16 -4 -20 3 -3 6 -1 6 6
0 7 5 9 11 6 6 -4 8 -14 5 -22 -3 -8 -1 -11 4 -8 6 3 10 2 10 -4 0 -21 -20
-21 -34 1 -20 33 -31 72 -17 64 6 -4 11 -1 11 6 0 10 3 9 10 -2 5 -9 5 -19 -2
-27z m29 15 c-3 -8 -6 -5 -6 6 -1 11 2 17 5 13 3 -3 4 -12 1 -19z m-357 -67
c0 -4 -4 -12 -9 -20 -8 -12 -12 -12 -25 -2 -23 19 -20 27 9 27 14 0 25 -2 25
-5z m384 -82 c-8 -14 -26 1 -20 17 3 8 -1 14 -9 14 -8 0 -15 7 -15 16 0 8 5
12 10 9 6 -3 10 0 10 7 1 7 7 -2 15 -21 8 -18 12 -37 9 -42z m37 44 c-12 -20
-14 -14 -5 12 4 9 9 14 11 11 3 -2 0 -13 -6 -23z m45 -112 c-1 -21 -5 -37 -9
-34 -5 3 -6 11 -3 18 3 8 0 16 -7 18 -9 3 -8 8 2 20 7 10 14 17 16 17 1 0 1
-18 1 -39z m-55 -22 c-5 -13 -10 -19 -10 -12 -1 15 10 45 15 40 3 -2 0 -15 -5
-28z m-2 -81 c11 -27 17 -48 13 -48 -17 0 -42 42 -46 76 -6 45 6 35 33 -28z
m41 38 c0 -3 -4 -8 -10 -11 -5 -3 -10 -1 -10 4 0 6 5 11 10 11 6 0 10 -2 10
-4z m30 -80 c0 -5 -7 -1 -15 10 -14 18 -14 18 -10 -4 5 -27 -10 -21 -18 8 -3
11 -1 18 4 14 5 -3 9 1 9 8 1 15 30 -20 30 -36z m14 -32 c3 -8 2 -12 -4 -9 -6
3 -10 10 -10 16 0 14 7 11 14 -7z m315 -509 l-1 -70 -18 85 c-19 89 -17 120 6
79 8 -14 13 -54 13 -94z"/>
<path d="M1160 1680 c-9 -6 -10 -10 -3 -10 6 0 15 5 18 10 8 12 4 12 -15 0z"/>
<path d="M1215 1680 c-16 -4 -26 -8 -22 -9 4 0 3 -10 -3 -21 -14 -27 -7 -25
26 5 15 14 32 24 36 23 14 -5 5 -23 -9 -22 -16 2 -17 -23 -2 -65 19 -54 46
-41 75 37 l9 23 22 -20 c18 -17 23 -18 32 -7 26 32 -98 74 -164 56z"/>
<path d="M1020 1448 c0 -7 5 -20 10 -28 8 -12 10 -11 10 7 0 12 -4 25 -10 28
-5 3 -10 0 -10 -7z"/>
<path d="M1035 1260 c-3 -5 1 -10 10 -10 9 0 13 5 10 10 -3 6 -8 10 -10 10 -2
0 -7 -4 -10 -10z"/>
<path d="M1560 943 c0 -12 -3 -30 -6 -40 -5 -13 -2 -12 10 4 13 17 14 27 7 40
-9 16 -10 16 -11 -4z"/>
<path d="M1500 911 c0 -6 5 -13 10 -16 6 -4 7 -11 4 -17 -4 -7 -2 -8 5 -4 8 6
9 12 2 20 -6 7 -8 16 -4 19 3 4 1 7 -5 7 -7 0 -12 -4 -12 -9z"/>
<path d="M1578 889 c-10 -5 -18 -15 -18 -22 0 -7 4 -6 10 3 9 13 11 13 20 0 8
-12 10 -11 10 8 0 25 1 25 -22 11z"/>
<path d="M1535 840 c10 -11 20 -18 23 -16 5 6 -23 36 -34 36 -4 0 1 -9 11 -20z"/>
<path d="M1670 901 c0 -6 4 -13 10 -16 6 -3 7 1 4 9 -7 18 -14 21 -14 7z"/>
<path d="M401 1500 c0 -8 4 -24 9 -35 5 -13 9 -14 9 -5 0 8 -4 24 -9 35 -5 13
-9 14 -9 5z"/>
<path d="M437 1495 c-4 -8 -2 -17 3 -20 6 -4 10 3 10 14 0 25 -6 27 -13 6z"/>
<path d="M7 1363 c7 -2 19 -2 26 0 6 3 1 5 -13 5 -14 0 -19 -2 -13 -5z"/>
<path d="M72 1275 c0 -16 2 -22 5 -12 2 9 2 23 0 30 -3 6 -5 -1 -5 -18z"/>
<path d="M770 1170 c0 -8 5 -22 10 -30 9 -13 10 -13 10 0 0 8 -5 22 -10 30 -9
13 -10 13 -10 0z"/>
<path d="M801 1124 c0 -11 3 -14 6 -6 3 7 2 16 -1 19 -3 4 -6 -2 -5 -13z"/>
<path d="M1265 1039 c-4 -6 -5 -12 -2 -15 2 -3 7 2 10 11 7 17 1 20 -8 4z"/>
<path d="M900 951 c0 -6 5 -13 10 -16 6 -3 10 1 10 9 0 9 -4 16 -10 16 -5 0
-10 -4 -10 -9z"/>
<path d="M720 726 c0 -2 8 -10 18 -17 15 -13 16 -12 3 4 -13 16 -21 21 -21 13z"/>
<path d="M2010 259 c12 -27 20 -69 22 -109 l2 -65 3 55 c5 60 -12 133 -33 151
-9 8 -7 -3 6 -32z"/>
<path d="M239 253 c-5 -14 -8 -30 -6 -36 1 -5 8 7 14 27 13 42 7 49 -8 9z"/>
<path d="M1524 205 l-6 -45 -44 0 c-64 0 -140 -19 -159 -39 -13 -15 -15 -30
-9 -70 l7 -51 212 0 213 0 -11 35 c-6 22 -17 35 -28 35 -9 0 -47 9 -83 21 -77
23 -92 45 -81 117 3 23 4 42 1 42 -3 0 -8 -20 -12 -45z"/>
<path d="M221 184 c0 -11 3 -14 6 -6 3 7 2 16 -1 19 -3 4 -6 -2 -5 -13z"/>
<path d="M1823 45 c0 -27 2 -38 4 -22 2 15 2 37 0 50 -2 12 -4 0 -4 -28z"/>
<path d="M2016 44 c-4 -20 -5 -38 -3 -40 3 -3 8 11 11 32 4 20 5 38 3 40 -3 3
-8 -11 -11 -32z"/>
</g>
</svg>
