<?xml version="1.0" standalone="no"?>
<!DOCTYPE svg PUBLIC "-//W3C//DTD SVG 20010904//EN"
 "http://www.w3.org/TR/2001/REC-SVG-20010904/DTD/svg10.dtd">
<svg version="1.0" xmlns="http://www.w3.org/2000/svg"
 width="512.000000pt" height="512.000000pt" viewBox="0 0 512.000000 512.000000"
 preserveAspectRatio="xMidYMid meet">
<metadata>
Created by potrace 1.14, written by Peter Selinger 2001-2017
</metadata>
<g transform="translate(0.000000,512.000000) scale(0.100000,-0.100000)"
fill="#000000" stroke="none">
<path d="M2031 4815 c-2 -20 38 -73 58 -80 12 -3 21 -10 21 -14 0 -4 -30 -22
-67 -39 -38 -18 -84 -46 -103 -63 -46 -40 -73 -53 -143 -69 -59 -14 -64 -29
-12 -33 36 -3 42 -20 13 -34 -46 -21 -156 -133 -182 -186 -28 -54 -21 -73 15
-41 10 9 22 14 26 11 13 -14 -18 -57 -67 -94 -55 -41 -63 -58 -25 -51 31 6 31
4 0 -51 -29 -51 -30 -52 -10 -45 22 9 18 -8 -10 -46 -30 -40 -31 -47 -7 -54
34 -11 42 -51 76 -399 10 -97 10 -120 -1 -129 -11 -9 -10 -13 6 -24 22 -16 65
-120 55 -135 -3 -5 -17 7 -30 27 -35 52 -50 64 -74 64 -13 0 -24 -9 -30 -26
-15 -40 -12 -74 6 -74 11 0 15 -6 11 -19 -2 -11 -2 -35 2 -53 7 -32 8 -32 30
35 l23 69 34 -33 c33 -32 48 -89 24 -89 -17 0 -60 -74 -60 -103 0 -40 78 -122
107 -113 24 8 21 36 -9 75 -23 30 -24 94 -1 116 14 15 15 33 7 168 -12 210 -9
300 11 353 9 24 20 44 23 44 19 0 37 54 42 128 6 73 9 86 33 108 15 14 27 32
27 41 0 12 3 13 15 3 12 -10 17 -7 26 14 13 27 24 33 34 16 9 -14 25 -2 25 18
0 10 8 29 17 42 l18 25 5 -30 c4 -20 11 -29 21 -26 8 2 22 5 32 6 10 1 45 28
79 61 l61 59 -37 -53 c-21 -30 -35 -56 -33 -58 2 -3 18 7 35 21 34 29 44 31
36 10 -17 -44 104 29 173 104 48 52 55 49 18 -9 -29 -46 -33 -69 -8 -49 13 11
17 11 20 2 3 -7 11 -13 18 -13 7 0 15 -6 18 -13 8 -22 74 -9 92 19 8 13 22 24
30 24 22 0 18 -17 -7 -34 l-22 -16 26 0 c30 0 60 34 97 108 12 23 24 42 28 42
3 0 3 -34 0 -75 -6 -77 2 -92 32 -62 10 10 15 9 25 -5 23 -31 50 -22 73 24
l20 43 -2 -40 c-4 -51 3 -62 22 -36 19 29 31 26 35 -6 3 -24 7 -28 31 -25 15
1 27 -2 27 -8 0 -7 8 -9 19 -5 11 3 22 1 26 -5 4 -7 18 -9 31 -6 17 5 24 2 24
-9 0 -21 30 -19 46 3 13 16 14 15 18 -20 0 -7 8 -13 16 -13 16 -1 62 -43 84
-78 8 -12 15 -48 15 -80 0 -51 5 -64 41 -117 23 -32 46 -76 51 -97 5 -21 9
-112 9 -203 1 -91 5 -183 9 -205 5 -22 9 -30 10 -18 0 12 8 42 16 65 8 24 16
61 19 81 3 21 12 49 20 62 10 15 14 35 10 53 -5 25 4 175 23 372 3 30 6 73 7
95 0 22 5 46 9 52 4 7 3 22 -3 33 -9 16 -8 19 6 13 14 -5 16 -2 10 20 -3 15
-1 29 5 33 8 4 7 9 -2 16 -11 8 -12 10 -1 15 11 4 10 8 -2 22 -8 9 -22 34 -31
55 -16 38 -16 38 7 30 21 -6 22 -6 8 12 -8 10 -45 52 -82 93 -38 40 -68 77
-68 81 0 5 10 16 23 25 12 10 18 19 12 21 -5 2 -50 31 -99 64 -50 33 -98 60
-108 60 -17 0 -198 174 -198 189 0 4 -14 15 -32 26 l-32 19 22 -28 c20 -26 30
-66 17 -66 -3 0 -29 16 -58 35 -54 36 -134 68 -199 80 -42 8 -52 -7 -17 -25
35 -19 14 -22 -35 -6 -85 29 -239 11 -272 -31 -8 -9 -35 -14 -80 -15 -79 -2
-164 28 -182 65 -6 12 -11 18 -11 12z"/>
<path d="M2761 3687 c-16 -4 -32 -16 -36 -27 -4 -12 -12 -17 -23 -14 -13 5
-14 4 -3 -4 8 -6 11 -18 6 -31 -8 -25 -14 -24 210 -25 83 -1 168 -7 190 -13
76 -21 95 -24 95 -13 0 21 -65 72 -130 103 -60 29 -73 31 -172 32 -59 0 -121
-3 -137 -8z"/>
<path d="M1995 3680 c-69 -15 -203 -107 -206 -143 -2 -15 2 -41 6 -45 2 -2 22
6 46 18 89 46 118 51 269 51 80 0 150 3 156 7 37 25 14 84 -39 101 -40 12
-192 19 -232 11z"/>
<path d="M2826 3455 c-47 -16 -84 -50 -102 -92 -19 -45 -18 -47 13 -18 35 32
48 32 51 -1 1 -14 6 -33 12 -43 5 -10 7 -21 4 -24 -9 -9 58 -27 81 -21 41 10
68 91 45 135 -8 15 -7 19 4 19 45 0 136 -69 136 -102 0 -10 5 -18 10 -18 6 0
10 7 10 15 0 12 7 14 28 9 24 -7 26 -6 13 9 -12 15 -11 17 5 17 15 0 14 3 -7
26 -64 69 -225 116 -303 89z m44 -59 c0 -11 -19 -15 -25 -6 -3 5 1 10 9 10 9
0 16 -2 16 -4z m20 -112 c0 -15 -10 -17 -34 -8 -24 9 -19 19 9 20 15 1 25 -3
25 -12z"/>
<path d="M2126 3441 c-3 -4 -34 -10 -68 -13 -72 -6 -163 -46 -173 -76 -3 -11
-14 -27 -25 -37 -26 -23 -25 -29 5 -43 14 -6 25 -18 25 -27 0 -20 26 -19 34 1
5 13 9 14 21 4 22 -18 26 -8 13 28 -10 27 -9 34 7 53 21 23 74 49 99 49 12 0
12 -5 4 -28 -14 -36 -4 -75 24 -102 31 -28 50 -26 42 5 -7 28 10 34 24 9 14
-26 55 32 48 68 -3 16 -2 28 2 28 13 0 82 -75 83 -90 0 -9 4 -7 8 5 16 39 -52
135 -115 161 -39 16 -51 17 -58 5z m29 -70 c7 -12 -12 -24 -25 -16 -11 7 -4
25 10 25 5 0 11 -4 15 -9z"/>
<path d="M3439 3370 c-26 -26 -30 -35 -18 -38 9 -1 24 -27 35 -60 l19 -57 3
53 c2 28 7 52 13 52 14 0 11 44 -5 65 -13 18 -15 17 -47 -15z"/>
<path d="M3356 3203 c-17 -18 14 -113 37 -113 18 0 18 34 2 71 -20 43 -28 52
-39 42z"/>
<path d="M3368 3045 c-26 -14 -46 -51 -34 -62 9 -9 76 46 76 63 0 17 -8 17
-42 -1z"/>
<path d="M1597 2959 c6 -23 42 -89 48 -89 14 0 -9 69 -29 89 l-25 25 6 -25z"/>
<path d="M2577 2873 c-4 -3 -7 -12 -7 -19 0 -16 52 -3 58 14 4 13 -39 17 -51
5z"/>
<path d="M2375 2860 c-9 -15 -7 -16 38 -24 34 -6 38 -5 35 11 -4 21 -62 31
-73 13z"/>
<path d="M1780 2787 c0 -30 -4 -40 -20 -44 -29 -8 -25 -21 7 -25 25 -3 30 -11
58 -103 18 -55 50 -136 73 -180 l42 -80 11 -165 c15 -219 8 -311 -27 -362 -34
-48 -82 -78 -125 -78 -19 0 -59 -13 -89 -30 -104 -57 -293 -142 -540 -243
-359 -147 -559 -255 -689 -371 -92 -83 -116 -121 -208 -331 -134 -304 -163
-423 -163 -670 l0 -105 2465 0 c1832 0 2465 3 2465 11 0 19 -21 138 -41 236
-45 218 -138 438 -236 558 -265 323 -345 414 -380 432 -506 257 -797 396 -831
394 -13 0 -60 22 -105 49 -64 40 -90 50 -124 50 -52 0 -54 -11 -7 -40 52 -33
68 -62 60 -112 -9 -55 -36 -116 -78 -171 -38 -52 -72 -75 -137 -92 l-46 -13
43 -1 c54 -1 55 -18 1 -65 -59 -50 -179 -109 -279 -137 -76 -21 -105 -24 -275
-24 -200 0 -248 7 -385 52 -124 42 -188 80 -265 156 -113 114 -163 204 -172
313 -5 58 -4 61 28 94 57 56 117 90 144 80 21 -8 23 -6 30 38 4 26 7 92 6 147
-1 73 2 96 10 85 8 -11 9 -7 4 18 -7 33 -6 33 17 21 26 -14 62 -51 110 -113
18 -22 35 -43 38 -46 4 -3 9 -12 12 -20 3 -9 31 -35 62 -59 63 -49 59 -49 124
17 14 15 29 21 40 18 22 -7 189 25 217 42 14 8 15 11 6 12 -10 0 -2 13 19 35
29 30 31 35 14 35 -291 4 -301 7 -424 109 -164 137 -301 285 -347 376 -23 44
-64 170 -83 255 -17 76 -29 95 -30 47z m823 -864 c-7 -2 -19 -2 -25 0 -7 3 -2
5 12 5 14 0 19 -2 13 -5z"/>
<path d="M3235 2761 c-12 -39 -35 -164 -31 -169 5 -4 20 51 31 111 5 33 9 37
35 37 42 0 44 14 4 26 -28 9 -34 8 -39 -5z"/>
<path d="M2465 2590 c-145 -9 -255 -29 -255 -46 0 -13 76 -52 121 -61 36 -7
36 -1 2 32 -26 23 -26 25 -7 25 11 0 25 5 31 11 11 11 162 28 256 29 44 0 65
-5 84 -20 l26 -20 -32 -6 c-31 -6 -31 -7 -11 -21 26 -18 70 -9 123 24 48 30
43 48 -14 49 -24 0 -80 3 -124 6 -44 3 -134 2 -200 -2z"/>
<path d="M3165 2508 c-27 -63 -75 -126 -186 -246 -135 -145 -133 -160 4 -38
88 78 99 85 120 86 15 0 17 -12 18 -102 1 -57 4 -146 8 -198 5 -77 8 -44 12
170 5 247 7 268 28 313 13 27 21 51 18 53 -2 2 -12 -15 -22 -38z"/>
<path d="M2400 2530 c0 -5 12 -10 28 -9 24 0 25 1 7 9 -27 12 -35 12 -35 0z"/>
<path d="M2578 2523 c12 -2 32 -2 45 0 12 2 2 4 -23 4 -25 0 -35 -2 -22 -4z"/>
<path d="M2370 2480 c0 -5 7 -10 16 -10 8 0 12 5 9 10 -3 6 -10 10 -16 10 -5
0 -9 -4 -9 -10z"/>
<path d="M2648 1943 c7 -3 16 -2 19 1 4 3 -2 6 -13 5 -11 0 -14 -3 -6 -6z"/>
<path d="M3140 1849 c0 -8 7 -24 15 -35 18 -24 19 -7 0 26 -9 16 -14 19 -15 9z"/>
<path d="M2482 1728 c3 -7 13 -15 24 -17 16 -3 17 -1 5 13 -16 19 -34 21 -29
4z"/>
</g>
</svg>
